<?xml version="1.0" encoding="utf-8"?>
<!-- Generator: Adobe Illustrator 24.1.2, SVG Export Plug-In . SVG Version: 6.00 Build 0)  -->
<svg version="1.1" id="Capa_1" xmlns="http://www.w3.org/2000/svg" xmlns:xlink="http://www.w3.org/1999/xlink" x="0px" y="0px"
	 viewBox="0 0 183 126.2" style="enable-background:new 0 0 183 126.2;" xml:space="preserve">
<style type="text/css">
	.st0{fill:#609CD0;}
	.st1{fill:#FFFFFF;}
</style>
<g>
	<g>
		<g>
			<path class="st0" d="M121.8,56.6c3.6,0,6.5,2.9,6.5,6.5s-2.9,6.5-6.5,6.5c-3.6,0-6.5-2.9-6.5-6.5S118.2,56.6,121.8,56.6
				 M121.8,51.6c-6.4,0-11.5,5.2-11.5,11.5c0,6.4,5.2,11.5,11.5,11.5c6.4,0,11.5-5.2,11.5-11.5C133.4,56.7,128.2,51.6,121.8,51.6
				L121.8,51.6z"/>
		</g>
		<g>
			<path class="st0" d="M121.8,42.5c11.3,0,20.5,9.2,20.5,20.5s-9.2,20.5-20.5,20.5c-11.3,0-20.5-9.2-20.5-20.5
				S110.5,42.5,121.8,42.5 M121.8,37.5c-14.1,0-25.5,11.4-25.5,25.5c0,14.1,11.4,25.5,25.5,25.5c14.1,0,25.5-11.4,25.5-25.5
				C147.4,49,135.9,37.5,121.8,37.5L121.8,37.5z"/>
		</g>
		<g>
			<path class="st0" d="M121.8,28.8c18.9,0,34.3,15.4,34.3,34.3s-15.4,34.3-34.3,34.3S87.5,82,87.5,63.1S102.9,28.8,121.8,28.8
				 M121.8,23.8c-21.7,0-39.3,17.6-39.3,39.3c0,21.7,17.6,39.3,39.3,39.3s39.3-17.6,39.3-39.3C161.2,41.4,143.6,23.8,121.8,23.8
				L121.8,23.8z"/>
		</g>
		<g>
			<path class="st0" d="M121.8,14.6c26.7,0,48.5,21.7,48.5,48.5s-21.7,48.5-48.5,48.5c-26.7,0-48.5-21.7-48.5-48.5
				S95.1,14.6,121.8,14.6 M121.8,9.6c-29.5,0-53.5,23.9-53.5,53.5c0,29.5,23.9,53.5,53.5,53.5c29.5,0,53.5-23.9,53.5-53.5
				C175.3,33.6,151.4,9.6,121.8,9.6L121.8,9.6z"/>
		</g>
	</g>
</g>
<g>
	<g>
		<path class="st1" d="M61.1,56.6c3.6,0,6.5,2.9,6.5,6.5s-2.9,6.5-6.5,6.5c-3.6,0-6.5-2.9-6.5-6.5S57.5,56.6,61.1,56.6 M61.1,51.6
			c-6.4,0-11.5,5.2-11.5,11.5c0,6.4,5.2,11.5,11.5,11.5c6.4,0,11.5-5.2,11.5-11.5C72.7,56.7,67.5,51.6,61.1,51.6L61.1,51.6z"/>
	</g>
	<g>
		<path class="st1" d="M61.1,42.5c11.3,0,20.5,9.2,20.5,20.5s-9.2,20.5-20.5,20.5c-11.3,0-20.5-9.2-20.5-20.5S49.8,42.5,61.1,42.5
			 M61.1,37.5C47,37.5,35.6,49,35.6,63.1c0,14.1,11.4,25.5,25.5,25.5c14.1,0,25.5-11.4,25.5-25.5C86.7,49,75.2,37.5,61.1,37.5
			L61.1,37.5z"/>
	</g>
	<g>
		<path class="st1" d="M61.1,28.8c18.9,0,34.3,15.4,34.3,34.3S80.1,97.4,61.1,97.4c-18.9,0-34.3-15.4-34.3-34.3S42.2,28.8,61.1,28.8
			 M61.1,23.8c-21.7,0-39.3,17.6-39.3,39.3c0,21.7,17.6,39.3,39.3,39.3s39.3-17.6,39.3-39.3C100.5,41.4,82.8,23.8,61.1,23.8
			L61.1,23.8z"/>
	</g>
	<g>
		<path class="st1" d="M61.1,14.6c26.7,0,48.5,21.7,48.5,48.5s-21.7,48.5-48.5,48.5c-26.7,0-48.5-21.7-48.5-48.5
			S34.4,14.6,61.1,14.6 M61.1,9.6C31.6,9.6,7.7,33.6,7.7,63.1c0,29.5,23.9,53.5,53.5,53.5c29.5,0,53.5-23.9,53.5-53.5
			C114.6,33.6,90.7,9.6,61.1,9.6L61.1,9.6z"/>
	</g>
</g>
</svg>
